<?xml version="1.0" standalone="no"?>
<!DOCTYPE svg PUBLIC "-//W3C//DTD SVG 20010904//EN"
 "http://www.w3.org/TR/2001/REC-SVG-20010904/DTD/svg10.dtd">
<svg version="1.0" xmlns="http://www.w3.org/2000/svg"
 width="1824.000000pt" height="248.000000pt" viewBox="0 0 1824.000000 248.000000"
 preserveAspectRatio="xMidYMid meet">

<g transform="translate(0.000000,248.000000) scale(0.100000,-0.100000)"
fill="#000000" stroke="none">
<path d="M2020 1759 l0 -90 -127 4 c-92 2 -149 9 -203 25 -41 12 -79 22 -85
22 -6 0 -10 -124 -10 -353 -1 -324 -3 -360 -23 -457 -14 -69 -36 -132 -62
-184 -22 -44 -38 -81 -36 -83 8 -8 124 119 155 171 80 133 109 248 118 459 l6
147 78 0 78 0 3 -107 3 -108 52 -3 c60 -3 93 10 93 38 0 18 7 20 70 20 55 0
70 -3 70 -15 0 -31 94 -31 136 -1 16 12 18 25 16 95 l-3 81 140 0 c91 0 142 4
147 11 8 14 -95 119 -118 119 -9 0 -36 -22 -60 -50 -35 -41 -49 -50 -75 -50
-33 0 -33 0 -33 50 0 36 4 52 15 56 20 8 19 30 -2 39 -10 4 -53 9 -95 12 l-78
6 0 -82 0 -81 -65 0 -65 0 0 49 c0 31 5 53 15 61 34 29 7 43 -97 54 l-68 7 0
-86 0 -85 -80 0 -80 0 0 83 c0 51 5 88 12 95 9 9 124 12 455 12 372 0 443 2
443 14 0 14 -115 126 -129 126 -5 0 -32 -25 -60 -55 l-52 -55 -115 0 -114 0 0
45 c0 39 4 47 25 57 29 13 33 44 6 53 -16 5 -169 25 -193 25 -5 0 -8 -41 -8
-91z m170 -404 l0 -65 -65 0 -65 0 0 65 0 65 65 0 65 0 0 -65z"/>
<path d="M3268 1745 l4 -108 -197 6 c-179 5 -196 4 -193 -11 3 -15 22 -17 196
-13 l192 3 0 -171 0 -172 -235 3 c-129 2 -235 0 -235 -4 0 -31 10 -33 201 -30
l190 4 -16 -39 c-26 -61 -74 -143 -125 -213 -63 -85 -202 -219 -265 -256 -70
-40 -35 -43 59 -4 104 44 277 160 359 243 l70 69 -8 -194 c-8 -227 -9 -224 81
-215 93 10 88 -9 82 322 -5 240 -3 281 6 235 33 -149 96 -270 191 -366 65 -67
136 -114 168 -114 8 0 27 16 41 35 36 47 75 83 109 101 36 19 34 31 -5 40 -60
13 -186 71 -260 120 -83 55 -187 154 -212 202 l-17 32 246 0 c192 0 245 3 245
13 0 17 -112 127 -130 127 -8 0 -37 -25 -65 -55 l-50 -56 -86 3 -86 3 98 89
c54 50 109 96 123 103 38 20 23 38 -57 71 -119 49 -110 51 -129 -26 -9 -37
-30 -106 -48 -154 -28 -77 -35 -88 -56 -88 l-24 0 0 170 0 170 210 0 c169 0
210 3 210 13 0 16 -113 127 -130 127 -12 0 -47 -36 -87 -87 -25 -33 -26 -33
-114 -33 l-89 0 0 59 c0 52 3 61 25 75 14 9 25 21 25 27 0 18 -67 39 -142 45
l-73 7 3 -108z"/>
<path d="M17074 1823 c-66 -108 -114 -173 -175 -238 -40 -41 -65 -75 -57 -75
25 0 186 87 269 145 43 30 84 55 92 55 7 0 22 6 32 14 19 13 18 15 -12 42 -17
16 -54 42 -82 57 l-50 28 -17 -28z"/>
<path d="M11405 1789 l-37 -41 -189 4 c-167 3 -189 2 -187 -12 3 -13 32 -15
196 -18 l193 -2 -7 -23 c-3 -12 -19 -50 -34 -84 l-28 -61 -38 9 c-76 17 -72
27 -66 -146 l5 -155 -121 0 c-111 0 -120 -1 -115 -18 4 -17 15 -18 119 -14
l114 5 0 -191 c0 -227 3 -222 -117 -222 -79 0 -92 -10 -41 -31 47 -19 95 -66
108 -103 12 -39 36 -48 83 -35 51 14 95 45 113 81 15 29 16 58 11 265 l-7 233
150 0 c116 0 150 3 150 13 0 7 -23 39 -51 71 -63 70 -79 70 -133 -1 -35 -48
-42 -53 -77 -53 l-39 0 0 99 c0 94 1 99 25 115 32 21 32 40 -1 55 -26 12 -26
12 61 72 48 34 104 67 124 74 24 8 36 18 36 31 0 19 -127 124 -150 124 -7 0
-29 -19 -50 -41z"/>
<path d="M10632 1729 c-7 -52 -18 -123 -24 -158 l-10 -64 -84 7 c-81 7 -84 6
-84 -15 0 -20 3 -21 80 -14 75 7 80 6 80 -13 0 -22 -51 -295 -78 -419 -22 -99
-17 -113 42 -113 53 0 77 17 90 64 l11 36 38 -25 38 -26 -33 -62 c-39 -73
-165 -205 -225 -236 -49 -24 -69 -47 -32 -36 124 37 254 112 324 184 21 22 42
41 46 41 4 0 14 -19 24 -42 23 -60 43 -78 81 -78 23 0 38 7 53 26 40 50 23
117 -44 180 l-44 40 25 68 c26 72 74 294 74 342 0 18 8 34 20 42 11 7 20 18
20 26 0 14 -50 63 -97 93 -26 17 -26 17 -63 -25 -32 -35 -44 -42 -75 -42 l-38
0 7 48 c20 145 28 173 53 185 54 25 1 60 -111 73 l-52 6 -12 -93z m208 -256
c-1 -74 -66 -403 -84 -420 -4 -4 -86 13 -91 19 -3 2 13 95 35 207 22 112 40
205 40 207 0 2 23 4 50 4 41 0 50 -3 50 -17z"/>
<path d="M17340 1719 l0 -101 -74 7 c-73 6 -74 6 -69 -15 5 -21 11 -22 74 -18
l69 4 0 -93 0 -93 -79 0 c-70 0 -79 -2 -75 -17 5 -17 23 -18 247 -15 133 2
246 8 252 13 11 11 -72 99 -95 99 -8 0 -28 -18 -44 -40 -47 -63 -56 -54 -56
55 l0 95 90 0 c107 0 110 6 45 70 l-46 45 -34 -40 c-19 -22 -34 -43 -35 -47 0
-5 -4 -8 -10 -8 -6 0 -10 26 -10 59 0 50 3 61 19 66 24 7 33 30 18 44 -13 10
-122 31 -164 31 -22 0 -23 -3 -23 -101z"/>
<path d="M7032 1770 c-23 -17 -42 -36 -42 -43 0 -8 17 -18 37 -23 38 -9 65
-42 78 -96 7 -26 5 -27 -82 -53 -103 -32 -198 -42 -244 -26 -18 6 -34 10 -35
8 -2 -2 10 -19 26 -39 37 -45 89 -70 145 -70 l44 0 -19 -36 c-22 -40 -26 -102
-10 -133 27 -50 160 -67 280 -34 30 8 60 15 65 15 11 0 75 -101 75 -118 0 -5
-49 -12 -108 -16 -195 -11 -298 -53 -334 -133 -26 -59 -18 -102 29 -154 63
-70 173 -113 316 -124 127 -10 173 18 139 86 -29 58 -68 72 -201 74 -159 2
-231 33 -231 100 0 67 63 89 245 83 126 -3 136 -5 195 -36 76 -39 104 -40 126
-7 26 40 11 81 -71 189 l-74 99 57 34 c63 37 122 94 122 118 0 29 -38 55 -82
55 -24 0 -60 4 -80 9 -42 10 -48 3 -18 -24 11 -10 20 -24 20 -31 0 -12 -59
-54 -77 -54 -15 0 -68 119 -57 128 5 5 43 21 85 36 42 15 85 34 97 42 28 20
28 59 0 78 -25 18 -113 22 -123 6 -9 -15 -106 -63 -113 -56 -3 3 -8 34 -11 68
-6 63 -6 63 -51 86 -57 29 -69 28 -118 -8z m161 -352 c15 -34 24 -65 19 -70
-11 -11 -160 -48 -194 -48 -107 0 -82 82 44 144 39 20 78 36 87 36 10 0 26
-23 44 -62z"/>
<path d="M12152 1770 c-23 -17 -42 -36 -42 -43 0 -8 17 -18 37 -23 38 -9 65
-42 78 -96 7 -26 5 -27 -82 -53 -103 -32 -198 -42 -244 -26 -18 6 -34 10 -35
8 -2 -2 10 -19 26 -39 37 -45 89 -70 145 -70 l44 0 -19 -36 c-22 -40 -26 -102
-10 -133 27 -50 160 -67 280 -34 30 8 60 15 65 15 11 0 75 -101 75 -118 0 -5
-49 -12 -108 -16 -195 -11 -298 -53 -334 -133 -26 -59 -18 -102 29 -154 63
-70 173 -113 316 -124 127 -10 173 18 139 86 -29 58 -68 72 -201 74 -159 2
-231 33 -231 100 0 67 63 89 245 83 126 -3 136 -5 195 -36 76 -39 104 -40 126
-7 26 40 11 81 -71 189 l-74 99 57 34 c63 37 122 94 122 118 0 29 -38 55 -82
55 -24 0 -60 4 -80 9 -42 10 -48 3 -18 -24 11 -10 20 -24 20 -31 0 -12 -59
-54 -77 -54 -15 0 -68 119 -57 128 5 5 43 21 85 36 42 15 85 34 97 42 28 20
28 59 0 78 -25 18 -113 22 -123 6 -9 -15 -106 -63 -113 -56 -3 3 -8 34 -11 68
-6 63 -6 63 -51 86 -57 29 -69 28 -118 -8z m161 -352 c15 -34 24 -65 19 -70
-11 -11 -160 -48 -194 -48 -107 0 -82 82 44 144 39 20 78 36 87 36 10 0 26
-23 44 -62z"/>
<path d="M14723 1780 c-29 -12 -29 -18 2 -42 28 -22 33 -73 15 -140 -10 -34
-16 -39 -63 -52 -128 -36 -220 -44 -269 -22 -27 12 -22 -9 12 -60 32 -45 74
-74 109 -74 10 0 48 9 82 20 35 10 65 18 66 16 8 -8 -102 -161 -162 -225 -58
-61 -68 -77 -73 -116 -5 -53 12 -102 40 -111 47 -15 106 69 243 344 l70 141
93 31 c51 18 99 38 107 47 19 19 19 47 0 63 -23 19 -86 30 -108 19 -27 -15
-30 -6 -11 34 25 53 13 80 -48 111 -55 28 -70 30 -105 16z"/>
<path d="M5690 1758 c0 -43 20 -94 45 -118 14 -13 25 -28 25 -33 0 -5 -18 -29
-39 -52 -77 -84 -103 -154 -131 -358 -22 -160 -17 -188 39 -247 45 -47 73 -50
103 -12 62 76 198 202 245 226 69 35 141 36 179 3 38 -33 45 -116 16 -174 -48
-93 -240 -223 -398 -269 -30 -8 -54 -19 -54 -23 0 -22 253 26 375 70 170 62
264 165 253 280 -11 112 -117 194 -252 193 -87 0 -118 -10 -269 -82 -135 -64
-143 -63 -131 23 4 28 8 108 8 178 1 123 2 130 25 148 27 22 106 26 176 8 84
-21 132 16 105 81 -17 41 -51 64 -154 101 -47 17 -102 42 -121 55 -44 29 -45
29 -45 2z"/>
<path d="M17854 1729 l-38 -52 -82 7 c-79 6 -82 5 -77 -14 5 -19 14 -20 172
-20 177 0 204 6 181 37 -36 47 -86 93 -101 93 -10 0 -34 -23 -55 -51z"/>
<path d="M4458 1759 c-25 -14 -22 -23 12 -36 29 -11 30 -14 29 -70 0 -32 -3
-76 -7 -98 l-7 -40 -90 -31 c-105 -37 -177 -48 -222 -35 -41 12 -41 6 -3 -47
59 -79 114 -97 204 -66 26 9 50 14 53 11 10 -11 -103 -231 -171 -332 -55 -83
-66 -106 -66 -141 0 -58 15 -92 45 -106 69 -31 119 61 281 526 35 102 40 109
73 123 20 8 66 28 104 45 60 28 67 34 67 60 0 24 -6 32 -35 44 -40 16 -81 18
-90 4 -9 -15 -25 -12 -25 6 0 8 10 38 22 66 25 59 20 72 -38 105 -41 24 -106
30 -136 12z"/>
<path d="M9553 1743 c-41 -21 -41 -31 -3 -44 40 -15 50 -54 50 -207 0 -137 13
-185 54 -203 25 -12 24 -12 -42 -59 -87 -61 -166 -145 -182 -194 -19 -60 -9
-147 23 -189 55 -73 176 -107 377 -107 211 0 290 22 290 80 0 27 -44 67 -89
81 -34 10 -60 9 -155 -6 -140 -22 -304 -18 -354 8 -67 36 -62 109 10 171 78
67 286 161 446 202 85 22 99 37 78 87 -26 62 -136 131 -182 113 -15 -6 -16 -8
0 -24 26 -30 19 -51 -31 -83 -110 -69 -128 -53 -119 108 4 62 12 126 17 143
16 45 4 74 -43 109 -48 35 -93 39 -145 14z"/>
<path d="M16232 1724 c-13 -8 -69 -33 -127 -55 -119 -45 -181 -51 -210 -19
-28 30 -35 24 -35 -28 0 -41 5 -55 36 -90 19 -23 44 -42 55 -42 11 0 52 18 92
41 82 46 138 71 145 65 11 -12 -216 -302 -334 -426 -39 -41 -78 -86 -87 -100
-26 -37 -21 -77 12 -111 25 -25 33 -27 58 -19 15 6 39 27 53 47 52 77 154 175
215 206 108 55 230 37 282 -42 46 -69 23 -190 -49 -259 l-35 -33 -49 50 c-61
60 -135 83 -206 62 -125 -38 -134 -171 -15 -227 132 -61 366 -6 462 108 72 85
91 200 47 284 -72 139 -289 192 -454 110 -27 -12 -48 -21 -48 -19 0 9 253 293
299 335 28 26 51 51 51 56 0 19 -61 92 -89 107 -37 19 -41 19 -69 -1z m-96
-848 c24 -24 44 -48 44 -54 0 -14 -72 -25 -109 -17 -43 9 -81 42 -81 70 0 29
24 44 69 45 27 0 43 -9 77 -44z"/>
<path d="M13228 1637 c3 -35 -7 -108 -32 -230 -43 -206 -54 -343 -37 -442 21
-124 75 -205 136 -205 54 0 67 25 60 111 -6 61 -1 103 25 233 17 87 30 160 28
162 -2 2 -30 -55 -62 -127 -33 -72 -63 -128 -70 -126 -6 2 -12 34 -14 78 -3
85 15 173 65 301 34 91 40 129 23 173 -10 27 -103 125 -118 125 -5 0 -7 -24
-4 -53z"/>
<path d="M2985 1532 c19 -29 29 -62 37 -119 11 -87 29 -113 80 -113 89 0 125
100 66 183 -24 34 -103 73 -167 83 l-43 7 27 -41z"/>
<path d="M13841 1560 c-13 -6 -77 -24 -142 -40 -64 -17 -130 -35 -145 -41 -28
-10 -26 -11 41 -35 39 -13 83 -24 98 -24 l29 0 -41 -49 c-48 -57 -52 -70 -13
-43 56 40 138 75 229 97 52 13 101 29 109 36 22 18 13 59 -18 82 -30 23 -111
32 -147 17z"/>
<path d="M17047 1502 c-40 -97 -121 -239 -182 -321 -30 -39 -50 -71 -46 -71 7
0 81 48 153 100 l21 14 -5 -283 -5 -283 25 -9 c30 -12 91 -2 115 19 15 14 17
41 17 303 0 279 1 288 20 294 32 10 23 35 -19 53 l-39 18 52 57 c29 31 60 57
69 57 23 0 31 18 16 36 -13 15 -141 84 -156 84 -5 0 -21 -30 -36 -68z"/>
<path d="M17898 1414 l-43 -56 -108 7 c-101 6 -108 5 -105 -12 3 -15 13 -18
56 -18 l52 0 0 -252 c0 -249 0 -252 -22 -267 -14 -10 -44 -16 -84 -16 -33 0
-64 -3 -67 -6 -4 -4 15 -17 41 -29 48 -22 92 -66 92 -91 0 -37 77 -38 138 -2
65 40 67 52 63 354 -3 265 -3 272 18 293 16 16 33 21 76 21 31 0 55 4 55 10 0
13 -78 98 -102 111 -15 8 -25 0 -60 -47z"/>
<path d="M15070 1443 c-54 -9 -100 -24 -100 -33 0 -6 17 -10 38 -11 43 0 104
-20 108 -34 2 -5 -17 -25 -41 -42 -77 -57 -115 -153 -115 -290 l0 -53 -78 0
c-132 0 -212 -56 -212 -148 0 -94 128 -161 254 -132 65 14 105 44 128 97 22
50 26 49 112 -19 61 -47 88 -55 121 -34 37 24 36 92 -2 128 -32 30 -122 75
-170 84 -44 8 -49 17 -62 107 -19 133 -16 174 18 208 36 35 68 37 145 8 64
-25 101 -20 118 16 23 50 -24 106 -113 133 -42 13 -116 20 -149 15z m-164
-534 c48 -12 55 -29 28 -67 -37 -54 -156 -72 -208 -31 -81 64 44 132 180 98z"/>
<path d="M1199 1398 c-9 -7 -35 -37 -58 -65 l-43 -53 -433 0 -432 0 5 -26 c5
-25 7 -26 50 -20 25 3 278 6 563 6 462 0 519 2 519 15 0 16 -134 155 -149 155
-4 0 -14 -6 -22 -12z"/>
<path d="M4825 1349 c-76 -19 -165 -61 -165 -78 0 -5 32 -12 70 -15 l70 -7
-35 -41 c-19 -23 -33 -43 -31 -45 2 -2 41 15 87 37 61 29 102 41 149 46 104 9
110 11 110 42 0 37 -10 49 -53 67 -47 20 -104 18 -202 -6z"/>
<path d="M17348 1265 l5 -107 -83 8 c-77 6 -82 6 -78 -12 3 -17 12 -19 81 -16
l77 3 0 -99 0 -100 -95 -7 c-61 -4 -95 -11 -95 -18 0 -27 55 -159 68 -165 8
-3 20 2 27 12 7 9 57 34 111 55 143 56 337 141 349 153 10 10 -55 7 -178 -9
l-48 -6 3 89 3 89 93 3 c55 2 92 7 92 13 0 20 -73 99 -91 99 -12 0 -32 -18
-51 -45 -17 -24 -35 -42 -40 -39 -4 3 -8 28 -8 57 0 44 4 55 28 74 25 22 26
24 9 37 -10 8 -39 17 -65 20 -26 4 -63 9 -83 12 l-37 5 6 -106z"/>
<path d="M8470 1314 c-30 -8 -116 -44 -190 -79 -148 -71 -187 -83 -219 -66
-19 11 -21 9 -21 -14 0 -14 7 -37 16 -51 18 -27 92 -74 116 -74 9 0 66 40 127
88 142 113 215 152 288 152 65 0 107 -20 133 -63 42 -68 15 -163 -67 -242 -52
-50 -209 -135 -299 -161 -79 -23 -70 -38 18 -30 162 16 346 80 422 146 104 92
112 235 17 330 -76 76 -205 100 -341 64z"/>
<path d="M2278 1179 l-38 -30 -225 3 c-221 3 -226 3 -223 -17 3 -18 9 -20 73
-17 l70 3 23 -73 c13 -40 37 -95 54 -123 l31 -49 -39 -32 c-81 -69 -323 -174
-399 -174 -13 0 -27 -4 -30 -10 -8 -13 28 -13 135 0 122 15 262 55 349 98 l76
38 57 -36 c62 -41 214 -94 295 -105 52 -7 53 -7 70 27 10 18 41 56 69 85 l52
51 -92 7 c-162 12 -326 45 -326 66 0 5 4 9 10 9 5 0 39 36 76 80 37 44 73 80
79 80 7 0 20 9 30 20 15 17 16 22 4 36 -26 32 -111 94 -128 94 -9 0 -33 -14
-53 -31z m-34 -71 c-19 -34 -94 -136 -108 -147 -14 -12 -22 -9 -57 14 -40 28
-85 80 -108 123 l-12 22 146 0 c114 0 145 -3 139 -12z"/>
<path d="M13545 1127 c-4 -16 -5 -56 -2 -89 13 -144 124 -209 361 -210 119 -1
170 15 180 56 15 60 -45 102 -139 96 -33 -2 -105 -3 -160 -4 -148 0 -199 32
-224 141 l-8 38 -8 -28z"/>
<path d="M4635 987 c-31 -163 115 -261 363 -244 98 7 132 24 132 65 0 63 -92
103 -183 81 -67 -16 -185 -7 -233 18 -32 16 -42 29 -56 69 l-16 49 -7 -38z"/>
</g>
</svg>
